<?xml version="1.0" standalone="no"?>
<!DOCTYPE svg PUBLIC "-//W3C//DTD SVG 20010904//EN"
 "http://www.w3.org/TR/2001/REC-SVG-20010904/DTD/svg10.dtd">
<svg version="1.0" xmlns="http://www.w3.org/2000/svg"
 width="1077.000000pt" height="1280.000000pt" viewBox="0 0 1077.000000 1280.000000"
 preserveAspectRatio="xMidYMid meet">
<metadata>
Created by potrace 1.15, written by Peter Selinger 2001-2017
</metadata>
<g transform="translate(0.000000,1280.000000) scale(0.100000,-0.100000)"
fill="#000000" stroke="none">
<path d="M4990 12793 c-240 -11 -574 -57 -835 -114 -1371 -301 -2569 -1150
-3332 -2364 -219 -350 -429 -798 -556 -1190 -219 -677 -312 -1452 -241 -2025
11 -92 17 -230 19 -435 3 -309 13 -439 56 -675 91 -503 309 -1020 584 -1385
187 -247 382 -405 540 -437 l53 -10 57 -92 c350 -566 808 -509 1134 141 409
817 551 2358 335 3646 -132 791 -377 1357 -676 1567 -99 70 -177 93 -288 88
-77 -4 -98 -9 -162 -40 -124 -62 -247 -185 -345 -347 -48 -78 -48 -79 -97 -84
-52 -7 -150 -48 -212 -91 -21 -14 -39 -24 -41 -23 -4 5 41 141 92 276 167 445
404 878 688 1255 686 910 1680 1524 2892 1785 284 61 576 102 872 122 432 30
950 -47 1386 -206 1099 -398 2086 -1369 2666 -2623 68 -146 191 -443 191 -460
0 -5 -28 0 -62 11 -35 10 -68 21 -74 22 -7 2 -30 36 -52 77 -135 243 -304 408
-474 459 -57 18 -87 21 -158 17 -77 -5 -99 -11 -172 -46 -449 -218 -783 -1132
-869 -2382 -14 -212 -14 -756 0 -975 83 -1231 418 -2155 863 -2381 239 -121
508 -14 720 286 41 58 43 60 88 60 61 0 152 25 214 58 110 58 293 269 362 414
19 42 29 47 37 21 2 -10 23 -83 47 -162 185 -633 209 -1246 70 -1790 -47 -184
-143 -427 -233 -585 -62 -111 -119 -197 -126 -193 -121 65 -196 86 -341 94
-250 13 -513 -54 -835 -212 -328 -160 -622 -384 -841 -638 -237 -276 -354
-524 -354 -751 0 -194 79 -325 243 -404 110 -53 184 -67 347 -66 257 2 529 82
840 246 451 238 843 611 1024 975 75 151 114 315 101 426 l-6 52 69 91 c301
396 489 894 554 1459 18 162 15 598 -5 771 -48 406 -148 792 -305 1185 l-51
126 20 89 c87 389 123 737 124 1199 0 976 -5 1164 -45 1485 -171 1398 -881
2672 -1975 3546 -1001 801 -2236 1199 -3525 1137z"/>
</g>
</svg>
