<?xml version="1.0" standalone="no"?>
<!DOCTYPE svg PUBLIC "-//W3C//DTD SVG 20010904//EN"
 "http://www.w3.org/TR/2001/REC-SVG-20010904/DTD/svg10.dtd">
<svg version="1.0" xmlns="http://www.w3.org/2000/svg"
 width="1280.000000pt" height="341.000000pt" viewBox="0 0 1280.000000 341.000000"
 preserveAspectRatio="xMidYMid meet">
<metadata>
Created by potrace 1.15, written by Peter Selinger 2001-2017
</metadata>
<g transform="translate(0.000000,341.000000) scale(0.100000,-0.100000)"
fill="#000000" stroke="none">
<path d="M1575 3241 c-49 -12 -73 -29 -115 -82 -43 -55 -56 -99 -46 -162 4
-23 9 -73 12 -112 5 -80 22 -104 72 -108 39 -2 39 -7 6 -38 -36 -34 -49 -62
-69 -154 -10 -44 -24 -94 -32 -112 -7 -18 -13 -46 -13 -63 0 -54 -50 -182 -92
-235 -21 -27 -67 -73 -101 -100 -76 -63 -119 -118 -148 -192 -27 -68 -30 -183
-15 -497 l9 -188 -61 -62 c-123 -123 -215 -249 -196 -269 18 -18 -84 -155
-158 -212 -53 -40 -66 -71 -50 -121 9 -31 8 -34 -9 -34 -11 0 -37 -9 -58 -20
-45 -22 -58 -57 -39 -97 13 -27 102 -96 148 -115 29 -12 142 -12 184 0 24 6
33 3 56 -19 32 -33 86 -49 162 -49 66 0 104 14 111 42 7 25 -30 143 -49 159
-10 8 -14 33 -14 85 0 70 1 73 30 91 17 9 32 25 35 34 3 10 16 24 29 32 15 11
28 36 40 79 21 78 44 135 68 167 10 13 18 32 18 41 0 10 15 40 33 66 38 57
130 253 189 404 23 58 47 114 54 125 8 11 21 70 30 130 9 61 22 121 29 135 7
14 16 40 20 58 4 20 21 44 45 63 28 22 44 48 60 92 33 93 88 187 115 197 64
24 100 167 69 277 -5 20 -1 22 53 28 148 18 433 84 512 119 45 20 84 36 86 36
3 0 5 -146 5 -324 l0 -325 -25 -20 c-40 -31 -75 -12 -156 85 -91 107 -140 134
-249 134 -222 0 -340 -123 -385 -405 -19 -113 -19 -178 -1 -282 21 -118 34
-159 74 -243 50 -103 144 -198 227 -229 164 -62 281 -22 365 124 38 66 60 86
81 74 10 -5 27 -24 36 -42 16 -28 18 -63 18 -302 0 -148 -6 -371 -14 -494 -13
-215 -13 -225 4 -238 27 -19 3122 -20 3148 -1 25 19 41 278 41 688 l1 345 -27
47 c-36 60 -87 92 -135 85 -46 -8 -73 -34 -123 -118 -53 -89 -88 -114 -160
-113 -206 3 -359 238 -360 549 0 301 94 459 280 473 91 6 128 -8 185 -71 26
-29 63 -69 82 -91 45 -49 113 -80 159 -71 46 8 98 55 120 108 20 48 21 194 5
542 -6 110 -13 292 -17 404 -6 173 -9 206 -24 221 -18 18 -38 20 -410 40 -228
12 -509 12 -585 0 -71 -12 -131 -51 -158 -104 -30 -57 -10 -99 73 -153 36 -23
83 -57 105 -77 l40 -35 0 -78 c-1 -95 -20 -137 -95 -207 -105 -98 -275 -152
-475 -149 -209 2 -357 58 -420 159 -26 41 -30 58 -33 133 -4 106 6 125 112
212 97 79 135 148 117 209 -16 56 -62 97 -129 117 -54 15 -91 15 -652 -6 -327
-12 -603 -21 -612 -21 -45 1 -93 -89 -86 -160 3 -36 1 -41 -26 -50 -16 -5 -81
-17 -145 -25 -135 -18 -181 -28 -236 -49 -45 -17 -141 -21 -178 -7 -26 10 -47
55 -47 102 0 17 -12 42 -30 62 -16 19 -30 38 -30 41 0 4 -18 31 -39 60 -33 44
-46 54 -78 59 -47 8 -109 7 -148 -2z m145 -91 c10 -10 28 -36 39 -57 10 -21
28 -47 40 -57 12 -11 21 -30 21 -42 0 -32 35 -122 56 -145 27 -30 194 -27 294
5 41 13 120 29 175 35 55 6 124 18 153 25 61 17 67 13 15 -10 -109 -45 -285
-95 -369 -104 -51 -5 -104 -14 -118 -20 -15 -5 -56 -10 -92 -10 -51 0 -68 -4
-84 -20 -11 -11 -20 -24 -20 -30 0 -5 9 -19 20 -30 17 -17 35 -20 133 -22 148
-3 195 1 233 17 18 7 59 16 91 20 82 10 222 43 262 63 19 9 43 29 54 44 17 23
19 34 11 70 -8 37 -13 44 -39 48 l-29 5 27 18 c22 14 27 25 27 57 0 27 7 47
21 61 11 11 19 29 16 39 -4 16 11 18 192 24 108 4 288 11 401 16 480 21 567
22 607 10 52 -17 73 -38 73 -73 0 -31 -25 -60 -132 -149 -78 -66 -103 -120
-102 -223 1 -104 23 -171 79 -233 54 -60 138 -106 247 -134 67 -17 111 -21
228 -21 170 0 256 19 386 83 145 71 222 163 250 297 27 125 -16 212 -140 288
-81 48 -96 66 -76 90 29 34 70 45 192 51 110 6 503 -6 729 -23 l86 -6 7 -206
c4 -113 11 -298 16 -411 15 -332 13 -424 -10 -469 -37 -74 -87 -58 -182 57
-51 61 -80 87 -123 107 -52 26 -63 27 -148 23 -110 -6 -167 -28 -226 -87 -106
-106 -169 -352 -141 -553 40 -294 160 -477 349 -532 140 -41 246 5 322 138 16
29 39 62 50 72 21 19 21 19 49 -14 15 -18 30 -50 34 -70 14 -87 2 -631 -20
-859 l-6 -63 -1503 0 c-827 0 -1506 3 -1508 7 -2 5 0 64 6 133 5 69 10 283 11
475 1 389 3 376 -69 445 -30 29 -43 35 -80 35 -54 0 -80 -23 -139 -122 -69
-115 -145 -137 -272 -79 -67 31 -122 88 -168 174 -118 226 -97 627 41 753 55
51 80 61 165 66 106 6 132 -7 215 -107 121 -146 236 -167 303 -57 19 30 20 53
20 404 0 204 -3 378 -6 387 -10 27 -47 18 -156 -34 -57 -28 -134 -57 -173 -65
-203 -44 -318 -64 -388 -71 -48 -4 -86 -13 -98 -23 -20 -16 -20 -16 2 -93 21
-71 21 -80 8 -129 -11 -40 -21 -56 -44 -69 -34 -19 -92 -112 -131 -212 -15
-38 -33 -68 -39 -68 -20 0 -62 -62 -75 -110 -6 -24 -17 -49 -24 -55 -7 -7 -18
-60 -25 -116 -7 -57 -22 -124 -33 -149 -11 -25 -33 -81 -49 -124 -17 -44 -46
-114 -66 -155 -20 -42 -49 -104 -64 -139 -16 -34 -42 -82 -59 -107 -16 -24
-30 -47 -30 -50 0 -7 -73 -165 -92 -199 -5 -11 -11 -31 -13 -45 -1 -14 -14
-34 -29 -46 -14 -11 -26 -26 -26 -33 0 -6 -9 -16 -20 -22 -50 -27 -73 -158
-46 -254 9 -31 20 -56 25 -56 5 0 11 -9 14 -19 11 -43 -85 -36 -129 10 -23 24
-25 29 -11 34 19 8 50 81 42 104 -3 9 4 34 15 56 21 42 27 129 9 140 -5 4 -14
18 -20 32 -7 20 -15 24 -41 21 -48 -4 -125 -109 -157 -213 l-24 -77 21 -39 21
-39 -52 0 c-42 0 -61 6 -99 32 -54 37 -64 57 -18 33 41 -21 60 -13 88 36 l23
40 -24 41 -24 42 77 75 c77 76 140 175 140 222 0 23 128 182 199 246 l46 42 0
163 c-1 90 -3 235 -5 323 -6 202 4 240 93 333 33 34 66 62 72 62 18 0 119 127
148 185 14 28 30 82 37 120 6 39 18 90 25 115 8 25 21 79 30 121 15 67 23 84
71 140 63 74 69 107 27 135 -16 10 -44 17 -65 17 l-36 -2 5 46 c3 32 -1 55
-13 78 -24 45 -13 92 34 137 40 39 55 45 120 47 29 1 48 -5 62 -19z m-830
-2572 c0 -6 -8 -20 -17 -30 -11 -12 -18 -36 -18 -63 0 -36 -4 -46 -22 -54 -26
-12 -26 -12 -10 49 19 69 67 140 67 98z"/>
<path d="M7960 3241 c-85 -4 -319 -14 -520 -21 -219 -8 -375 -17 -390 -24
l-25 -11 4 -590 c3 -586 3 -590 -18 -609 -29 -27 -63 -14 -114 42 -115 128
-152 159 -207 172 -67 16 -187 7 -245 -19 -95 -42 -176 -160 -212 -306 -27
-111 -24 -326 6 -440 56 -215 167 -353 320 -399 142 -42 250 1 322 129 16 28
38 61 50 74 l21 22 25 -23 c35 -32 40 -51 48 -164 7 -95 -8 -544 -24 -764 -6
-82 -5 -110 6 -127 l13 -23 1565 0 1565 0 14 22 c28 45 58 833 37 968 -18 117
-74 185 -152 185 -48 0 -83 -33 -138 -124 -50 -85 -100 -116 -171 -108 -154
18 -266 139 -322 346 -28 102 -30 316 -5 410 47 173 118 249 248 265 103 13
133 -1 234 -108 50 -52 104 -102 122 -110 72 -35 148 -7 191 72 31 56 36 135
24 407 -6 121 -8 222 -6 224 2 2 34 -10 71 -26 86 -39 98 -43 153 -53 25 -4
103 -20 174 -34 71 -15 155 -29 188 -33 54 -5 59 -8 54 -27 -31 -109 1 -250
63 -275 30 -13 79 -94 121 -203 19 -50 35 -74 60 -90 25 -17 37 -35 46 -71 7
-26 17 -53 22 -60 5 -7 15 -55 22 -107 7 -56 22 -118 37 -150 14 -30 36 -86
50 -125 14 -38 45 -110 68 -160 24 -49 55 -116 68 -147 14 -32 37 -72 50 -90
14 -18 28 -44 32 -58 4 -14 21 -49 36 -78 16 -28 36 -82 46 -120 11 -47 25
-75 45 -94 15 -14 28 -31 28 -37 0 -5 16 -22 35 -37 34 -26 35 -28 35 -94 0
-46 -4 -71 -14 -79 -13 -11 -56 -129 -56 -153 0 -4 9 -17 20 -28 16 -16 33
-20 89 -20 97 0 128 8 167 45 18 18 35 30 37 28 14 -13 131 -22 172 -13 49 11
159 80 175 110 30 55 -5 112 -75 126 -32 6 -33 7 -24 37 15 52 2 83 -50 122
-82 59 -161 172 -161 229 0 31 -65 118 -168 226 l-81 85 -1 95 c0 52 5 172 12
266 13 194 6 268 -38 361 -24 50 -131 167 -164 179 -27 9 -100 110 -125 173
-14 33 -29 90 -34 125 -5 35 -13 72 -19 82 -5 11 -19 62 -31 115 -18 78 -28
104 -57 138 -33 38 -34 41 -14 41 24 0 61 17 73 34 4 6 7 38 6 71 -1 33 4 73
10 88 28 71 2 155 -70 224 -62 58 -158 76 -262 46 -10 -2 -30 -23 -45 -45 -15
-23 -34 -51 -42 -63 -45 -65 -60 -92 -60 -112 0 -13 -7 -40 -16 -61 -15 -39
-15 -39 -82 -45 -55 -4 -80 -1 -139 19 -39 14 -111 29 -160 35 -104 11 -202
29 -223 40 -10 5 -13 20 -11 48 4 60 -15 104 -60 141 -37 30 -48 33 -142 40
-56 5 -239 14 -407 20 -377 15 -500 7 -563 -37 -105 -73 -102 -155 8 -223 127
-78 163 -130 151 -213 -22 -145 -140 -252 -343 -309 -63 -18 -105 -22 -213
-22 -191 -1 -310 31 -393 104 -62 55 -79 96 -81 196 -1 98 5 109 115 201 41
34 84 81 97 104 45 84 18 162 -71 208 -56 29 -149 34 -407 22z m371 -96 c73
-38 59 -88 -52 -180 -45 -37 -90 -85 -106 -112 -26 -44 -28 -56 -28 -148 0
-89 3 -106 28 -157 47 -97 132 -156 284 -200 113 -33 351 -33 470 0 214 58
359 176 398 323 40 147 0 239 -135 320 -92 55 -99 63 -70 94 40 42 79 48 314
47 210 -1 617 -18 664 -28 15 -3 22 -12 22 -27 0 -28 26 -67 46 -67 10 0 14
-12 14 -37 0 -21 4 -43 8 -50 21 -34 161 -69 342 -88 35 -3 73 -11 84 -17 51
-27 122 -38 215 -31 l94 6 24 53 c13 29 27 70 30 91 3 21 14 47 25 58 11 11
33 44 49 73 31 56 38 59 124 53 53 -4 70 -14 105 -63 34 -46 38 -82 14 -117
-12 -16 -15 -37 -12 -75 l4 -52 -33 4 c-36 5 -76 -16 -92 -47 -10 -19 13 -59
80 -137 25 -30 52 -127 100 -359 6 -27 20 -70 31 -95 26 -57 120 -173 161
-199 53 -33 104 -93 134 -156 28 -59 28 -62 24 -215 -3 -85 -5 -234 -5 -330
l-1 -175 98 -99 c53 -54 97 -104 97 -111 0 -7 9 -19 20 -26 11 -8 23 -27 26
-44 14 -81 100 -207 179 -263 41 -29 42 -38 14 -86 -19 -33 -20 -37 -4 -70 25
-53 40 -62 79 -48 53 20 54 14 2 -23 -42 -29 -58 -35 -102 -35 l-53 0 21 39
20 38 -26 79 c-30 89 -42 109 -99 171 -50 54 -77 56 -106 7 -24 -39 -28 -112
-9 -147 6 -12 15 -46 19 -76 4 -30 18 -68 30 -84 l22 -30 -32 -29 c-25 -22
-41 -28 -77 -28 -42 0 -45 1 -38 23 3 12 12 29 19 37 50 58 36 259 -21 297
-13 8 -24 19 -24 23 0 5 -13 22 -30 38 -16 17 -30 39 -30 49 0 11 -13 47 -30
81 -16 34 -30 66 -30 71 0 5 -6 14 -14 20 -8 7 -17 24 -21 39 -3 15 -21 49
-38 76 -38 59 -137 270 -177 376 -15 41 -39 100 -53 130 -15 34 -29 93 -37
155 -7 56 -20 113 -30 130 -10 17 -21 44 -24 60 -9 39 -53 102 -75 108 -10 2
-22 22 -30 48 -7 24 -34 82 -59 128 -34 63 -53 87 -74 95 -23 9 -32 21 -45 66
-15 51 -15 60 1 117 9 34 18 68 21 75 13 32 -18 48 -115 59 -52 6 -149 22
-215 36 -66 14 -140 29 -165 33 -56 10 -135 41 -220 86 -119 63 -116 72 -102
-299 12 -324 9 -364 -31 -405 -43 -42 -73 -25 -185 106 -75 88 -115 106 -227
106 -107 0 -160 -13 -216 -57 -119 -91 -187 -295 -176 -527 14 -299 148 -525
346 -584 145 -43 248 1 331 144 22 37 46 70 54 73 7 3 26 -7 41 -23 42 -44 49
-150 35 -510 -7 -162 -15 -335 -18 -385 l-7 -90 -1509 -3 -1508 -2 6 87 c25
344 32 721 16 832 -15 105 -75 176 -151 176 -48 0 -77 -27 -131 -118 -54 -90
-86 -112 -163 -111 -156 1 -279 126 -337 343 -43 160 -22 431 43 540 60 99
118 133 234 135 99 1 118 -9 210 -118 97 -113 173 -142 246 -93 69 46 69 49
68 467 0 206 -4 456 -8 555 -5 99 -6 182 -4 185 2 3 158 10 346 17 188 7 432
17 542 22 225 10 294 7 336 -14z m3640 -2690 c5 -22 12 -48 15 -58 5 -15 2
-16 -20 -6 -20 9 -24 17 -20 38 3 15 -3 42 -16 66 -27 53 -25 67 5 30 14 -16
30 -48 36 -70z"/>
<path d="M10181 2877 c-6 -8 -14 -27 -17 -44 -9 -48 17 -87 76 -112 52 -23
215 -61 261 -61 15 0 55 -9 89 -20 65 -21 206 -27 304 -14 57 8 85 39 66 73
-9 17 -20 21 -68 21 -31 0 -91 9 -132 20 -41 11 -98 20 -126 20 -49 0 -259 63
-371 111 -53 23 -67 23 -82 6z"/>
</g>
</svg>
