<svg width="1501" height="234" viewBox="0 0 1501 234" fill="none" xmlns="http://www.w3.org/2000/svg">
<path d="M3 221V13C3 7.47715 7.47712 3 13 3H1346.6C1348.81 3 1350.95 3.72763 1352.69 5.06986L1490.49 110.93C1495.76 114.975 1495.69 122.936 1490.36 126.892L1352.65 229.032C1350.93 230.31 1348.84 231 1346.7 231H13C7.47715 231 3 226.523 3 221Z" fill="white" fill-opacity="0.8" stroke="black" stroke-width="5"/>
<path d="M102.85 139.2C97.2 139.2 93.05 137.775 90.4 134.925C87.75 132.075 86.425 127.35 86.425 120.75C86.425 115.5 87.3 109.85 89.05 103.8C90.85 97.75 93.7 92.575 97.6 88.275C101.55 83.925 106.55 81.75 112.6 81.75C116.35 81.75 119.375 82.575 121.675 84.225C123.975 85.875 125.125 88.4 125.125 91.8C125.125 93.95 124.7 95.65 123.85 96.9C123 98.1 121.675 98.7 119.875 98.7C118.075 98.7 116.65 98.05 115.6 96.75C116.5 96.3 117.3 95.4 118 94.05C118.7 92.7 119.05 91.3 119.05 89.85C119.05 88.5 118.675 87.4 117.925 86.55C117.225 85.7 116.075 85.275 114.475 85.275C111.825 85.275 109.3 87.1 106.9 90.75C104.5 94.35 102.55 98.9 101.05 104.4C99.6 109.9 98.875 115.2 98.875 120.3C98.875 124.1 99.525 127 100.825 129C102.125 131 104.475 132 107.875 132C110.825 132 113.55 131.35 116.05 130.05C118.55 128.75 120.7 126.9 122.5 124.5L124.225 125.25C122.975 128.4 121.125 131.025 118.675 133.125C116.225 135.225 113.6 136.775 110.8 137.775C108 138.725 105.35 139.2 102.85 139.2ZM135.705 138.45C133.005 138.45 130.88 137.625 129.33 135.975C127.73 134.275 126.93 132.225 126.93 129.825C126.93 128.125 127.33 126.775 128.13 125.775C128.93 124.725 130.03 124.2 131.43 124.2C132.63 124.2 133.605 124.575 134.355 125.325C135.105 126.075 135.48 126.975 135.48 128.025C135.48 129.225 135.18 130.15 134.58 130.8C133.98 131.4 133.28 131.65 132.48 131.55C132.48 133.45 133.455 134.4 135.405 134.4C136.755 134.4 137.88 133.875 138.78 132.825C139.68 131.725 140.455 130.1 141.105 127.95C141.755 125.8 142.43 122.85 143.13 119.1C144.08 114.05 145.18 110.175 146.43 107.475C147.73 104.775 149.205 102.95 150.855 102C152.555 101 154.63 100.5 157.08 100.5H168.105L164.13 119.1C163.63 121.25 163.205 123.125 162.855 124.725C162.505 126.325 162.33 127.425 162.33 128.025C162.33 130.125 163.33 131.175 165.33 131.175C166.73 131.175 167.855 130.7 168.705 129.75C169.555 128.8 170.53 127.075 171.63 124.575H174.78C171.63 133.825 166.905 138.45 160.605 138.45C157.855 138.45 155.73 137.675 154.23 136.125C152.73 134.575 151.98 132.7 151.98 130.5C151.98 128.75 152.53 125.35 153.63 120.3L157.155 104.325C155.255 104.325 153.705 104.725 152.505 105.525C151.355 106.325 150.38 107.675 149.58 109.575C148.78 111.475 148.03 114.15 147.33 117.6C146.23 123.25 145.28 127.425 144.48 130.125C143.73 132.775 142.68 134.825 141.33 136.275C139.98 137.725 138.105 138.45 135.705 138.45ZM190.052 138.3C186.352 138.3 183.427 137.35 181.277 135.45C179.127 133.55 178.052 130.55 178.052 126.45C178.052 123.05 178.752 119.275 180.152 115.125C181.552 110.975 183.802 107.4 186.902 104.4C190.002 101.35 193.902 99.825 198.602 99.825C205.002 99.825 208.202 103.825 208.202 111.825V111.9C208.352 111.95 208.627 111.975 209.027 111.975C210.677 111.975 212.577 111.55 214.727 110.7C216.877 109.8 218.827 108.725 220.577 107.475L221.252 109.5C219.802 111.05 217.902 112.375 215.552 113.475C213.252 114.525 210.727 115.275 207.977 115.725C207.577 120.275 206.552 124.25 204.902 127.65C203.252 131.05 201.127 133.675 198.527 135.525C195.927 137.375 193.102 138.3 190.052 138.3ZM193.052 131.55C194.252 131.55 195.452 130.875 196.652 129.525C197.852 128.125 198.902 126.25 199.802 123.9C200.702 121.5 201.352 118.85 201.752 115.95C200.402 115.65 199.727 114.6 199.727 112.8C199.727 110.75 200.502 109.4 202.052 108.75C201.952 107.1 201.702 105.975 201.302 105.375C200.902 104.725 200.202 104.4 199.202 104.4C197.552 104.4 195.952 105.6 194.402 108C192.852 110.4 191.602 113.275 190.652 116.625C189.702 119.975 189.227 122.925 189.227 125.475C189.227 127.875 189.502 129.5 190.052 130.35C190.602 131.15 191.602 131.55 193.052 131.55ZM230.961 138.3C226.811 138.3 223.686 137.075 221.586 134.625C219.536 132.175 218.511 128.9 218.511 124.8C218.511 120.8 219.586 115.3 221.736 108.3C223.886 101.25 226.736 95.05 230.286 89.7C233.836 84.35 237.661 81.675 241.761 81.675C247.261 81.675 250.011 85.1 250.011 91.95C250.011 96.8 247.961 102.8 243.861 109.95C244.911 110.45 245.861 111.2 246.711 112.2C248.911 112.2 251.286 111.725 253.836 110.775C256.436 109.825 258.636 108.725 260.436 107.475L261.111 109.5C259.761 110.95 257.961 112.225 255.711 113.325C253.511 114.375 251.086 115.125 248.436 115.575C248.686 116.525 248.811 117.775 248.811 119.325C248.811 122.675 248.086 125.8 246.636 128.7C245.186 131.6 243.111 133.925 240.411 135.675C237.711 137.425 234.561 138.3 230.961 138.3ZM234.261 131.55C235.811 131.55 237.161 131.025 238.311 129.975C239.511 128.925 240.411 127.6 241.011 126C241.661 124.4 241.986 122.75 241.986 121.05C241.986 119.2 241.761 117.825 241.311 116.925C240.961 117.075 240.586 117.2 240.186 117.3C239.786 117.35 239.261 117.375 238.611 117.375C237.411 117.375 236.461 117.05 235.761 116.4C235.061 115.75 234.711 114.85 234.711 113.7C234.711 112.2 235.161 111.1 236.061 110.4C237.011 109.7 238.311 109.3 239.961 109.2C241.411 106.55 242.636 103.625 243.636 100.425C244.686 97.175 245.211 94.25 245.211 91.65C245.211 90.15 245.011 89.1 244.611 88.5C244.261 87.85 243.636 87.525 242.736 87.525C240.786 87.525 238.786 89.95 236.736 94.8C234.736 99.65 233.061 105.175 231.711 111.375C230.361 117.575 229.686 122.125 229.686 125.025C229.686 129.375 231.211 131.55 234.261 131.55ZM269.752 138.45C266.902 138.45 264.527 137.475 262.627 135.525C260.727 133.575 259.777 130.525 259.777 126.375C259.777 122.675 260.502 118.8 261.952 114.75C263.452 110.65 265.652 107.2 268.552 104.4C271.502 101.55 275.002 100.125 279.052 100.125C281.102 100.125 282.627 100.475 283.627 101.175C284.627 101.875 285.127 102.8 285.127 103.95V104.475L285.952 100.5H296.752L291.352 126C291.152 126.75 291.052 127.55 291.052 128.4C291.052 129.4 291.277 130.125 291.727 130.575C292.227 130.975 293.027 131.175 294.127 131.175C294.827 131.175 295.377 131.075 295.777 130.875C294.677 133.675 293.627 135.65 292.627 136.8C291.627 137.9 290.177 138.45 288.277 138.45C286.227 138.45 284.552 137.85 283.252 136.65C282.002 135.4 281.227 133.675 280.927 131.475C277.877 136.125 274.152 138.45 269.752 138.45ZM274.627 131.175C275.877 131.175 277.102 130.6 278.302 129.45C279.552 128.25 280.402 126.625 280.852 124.575L284.452 107.625C284.452 106.975 284.202 106.35 283.702 105.75C283.202 105.1 282.427 104.775 281.377 104.775C279.377 104.775 277.577 105.95 275.977 108.3C274.377 110.6 273.127 113.4 272.227 116.7C271.327 119.95 270.877 122.825 270.877 125.325C270.877 127.825 271.227 129.425 271.927 130.125C272.677 130.825 273.577 131.175 274.627 131.175ZM354.246 138.45C351.396 138.45 349.196 137.7 347.646 136.2C346.146 134.65 345.396 132.75 345.396 130.5C345.396 129.05 345.971 125.55 347.121 120H338.796L334.971 138H324.171L332.121 100.5H342.921L339.696 115.5H348.096L351.471 100.5H361.521L357.546 119.1C357.046 121.25 356.621 123.125 356.271 124.725C355.921 126.325 355.746 127.425 355.746 128.025C355.746 130.125 356.746 131.175 358.746 131.175C360.146 131.175 361.271 130.7 362.121 129.75C362.971 128.8 363.946 127.075 365.046 124.575H368.196C365.046 133.825 360.396 138.45 354.246 138.45ZM381.534 138.45C378.684 138.45 376.309 137.475 374.409 135.525C372.509 133.575 371.559 130.525 371.559 126.375C371.559 122.675 372.284 118.8 373.734 114.75C375.234 110.65 377.434 107.2 380.334 104.4C383.284 101.55 386.784 100.125 390.834 100.125C392.884 100.125 394.409 100.475 395.409 101.175C396.409 101.875 396.909 102.8 396.909 103.95V104.475L397.734 100.5H408.534L403.134 126C402.934 126.75 402.834 127.55 402.834 128.4C402.834 129.4 403.059 130.125 403.509 130.575C404.009 130.975 404.809 131.175 405.909 131.175C406.609 131.175 407.159 131.075 407.559 130.875C406.459 133.675 405.409 135.65 404.409 136.8C403.409 137.9 401.959 138.45 400.059 138.45C398.009 138.45 396.334 137.85 395.034 136.65C393.784 135.4 393.009 133.675 392.709 131.475C389.659 136.125 385.934 138.45 381.534 138.45ZM386.409 131.175C387.659 131.175 388.884 130.6 390.084 129.45C391.334 128.25 392.184 126.625 392.634 124.575L396.234 107.625C396.234 106.975 395.984 106.35 395.484 105.75C394.984 105.1 394.209 104.775 393.159 104.775C391.159 104.775 389.359 105.95 387.759 108.3C386.159 110.6 384.909 113.4 384.009 116.7C383.109 119.95 382.659 122.825 382.659 125.325C382.659 127.825 383.009 129.425 383.709 130.125C384.459 130.825 385.359 131.175 386.409 131.175ZM445.104 138.45C441.754 138.45 439.229 137.75 437.529 136.35C435.779 134.95 434.904 133 434.904 130.5C434.904 128.5 435.329 126.95 436.179 125.85C436.979 124.75 438.004 124.2 439.254 124.2C440.354 124.2 441.279 124.55 442.029 125.25C441.379 127 441.054 128.7 441.054 130.35C441.054 133.1 442.429 134.475 445.179 134.475C447.229 134.475 449.129 133.075 450.879 130.275C452.629 127.425 453.954 124 454.854 120H445.554L446.529 115.5H455.529C455.629 114.2 455.679 113.25 455.679 112.65C455.679 110.2 455.204 108.5 454.254 107.55C453.304 106.6 451.729 106.125 449.529 106.125C448.079 106.125 446.804 106.525 445.704 107.325C444.604 108.125 443.604 109.35 442.704 111H438.879C440.429 107.35 442.379 104.575 444.729 102.675C447.079 100.775 450.304 99.825 454.404 99.825C458.304 99.825 461.329 100.85 463.479 102.9C465.679 104.95 466.779 108.025 466.779 112.125C466.779 115.325 466.004 119 464.454 123.15C462.904 127.3 460.479 130.9 457.179 133.95C453.929 136.95 449.904 138.45 445.104 138.45ZM522.885 138.45C519.835 138.45 517.585 137.65 516.135 136.05C514.735 134.4 514.035 132.375 514.035 129.975C514.035 128.925 514.16 127.75 514.41 126.45C514.66 125.1 514.91 123.8 515.16 122.55C515.46 121.3 515.66 120.5 515.76 120.15C516.16 118.4 516.535 116.675 516.885 114.975C517.235 113.275 517.41 111.9 517.41 110.85C517.41 108.3 516.51 107.025 514.71 107.025C513.41 107.025 512.26 107.675 511.26 108.975C510.26 110.225 509.46 111.875 508.86 113.925L503.76 138H492.96L498.435 112.125C498.585 111.525 498.66 110.9 498.66 110.25C498.66 108.05 497.91 106.95 496.41 106.95C495.01 106.95 493.785 107.6 492.735 108.9C491.735 110.15 490.935 111.825 490.335 113.925L485.235 138H474.435L482.385 100.5H493.185L492.36 104.4C494.91 101.55 497.96 100.125 501.51 100.125C505.91 100.125 508.485 102.275 509.235 106.575C511.985 102.325 515.46 100.2 519.66 100.2C522.21 100.2 524.235 100.9 525.735 102.3C527.235 103.7 527.985 105.825 527.985 108.675C527.985 110.125 527.81 111.75 527.46 113.55C527.11 115.3 526.61 117.45 525.96 120C525.56 121.55 525.185 123.075 524.835 124.575C524.535 126.025 524.385 127.175 524.385 128.025C524.385 129.025 524.61 129.8 525.06 130.35C525.51 130.9 526.285 131.175 527.385 131.175C528.885 131.175 530.085 130.65 530.985 129.6C531.885 128.5 532.785 126.825 533.685 124.575H536.835C534.985 130.075 532.835 133.775 530.385 135.675C527.985 137.525 525.485 138.45 522.885 138.45ZM552.132 138.3C548.432 138.3 545.507 137.35 543.357 135.45C541.207 133.55 540.132 130.55 540.132 126.45C540.132 123.05 540.832 119.275 542.232 115.125C543.632 110.975 545.882 107.4 548.982 104.4C552.082 101.35 555.982 99.825 560.682 99.825C567.082 99.825 570.282 103.825 570.282 111.825V111.9C570.432 111.95 570.707 111.975 571.107 111.975C572.757 111.975 574.657 111.55 576.807 110.7C578.957 109.8 580.907 108.725 582.657 107.475L583.332 109.5C581.882 111.05 579.982 112.375 577.632 113.475C575.332 114.525 572.807 115.275 570.057 115.725C569.657 120.275 568.632 124.25 566.982 127.65C565.332 131.05 563.207 133.675 560.607 135.525C558.007 137.375 555.182 138.3 552.132 138.3ZM555.132 131.55C556.332 131.55 557.532 130.875 558.732 129.525C559.932 128.125 560.982 126.25 561.882 123.9C562.782 121.5 563.432 118.85 563.832 115.95C562.482 115.65 561.807 114.6 561.807 112.8C561.807 110.75 562.582 109.4 564.132 108.75C564.032 107.1 563.782 105.975 563.382 105.375C562.982 104.725 562.282 104.4 561.282 104.4C559.632 104.4 558.032 105.6 556.482 108C554.932 110.4 553.682 113.275 552.732 116.625C551.782 119.975 551.307 122.925 551.307 125.475C551.307 127.875 551.582 129.5 552.132 130.35C552.682 131.15 553.682 131.55 555.132 131.55ZM601.141 96.825C598.041 96.825 595.641 96.25 593.941 95.1C592.241 93.95 591.391 92.375 591.391 90.375C591.391 88.725 591.841 87.4 592.741 86.4C593.691 85.4 594.916 84.9 596.416 84.9C597.866 84.9 598.991 85.25 599.791 85.95C600.641 86.65 601.066 87.65 601.066 88.95C601.066 90.55 600.466 91.75 599.266 92.55C599.916 92.75 600.916 92.85 602.266 92.85C604.666 92.85 606.891 92.175 608.941 90.825C610.991 89.475 612.616 87.225 613.816 84.075H616.966C615.366 88.775 613.266 92.075 610.666 93.975C608.116 95.875 604.941 96.825 601.141 96.825ZM589.066 138.45C586.666 138.45 584.716 137.7 583.216 136.2C581.766 134.7 581.041 132.45 581.041 129.45C581.041 128.2 581.241 126.575 581.641 124.575L586.741 100.5H597.541L592.141 126C591.991 126.6 591.916 127.225 591.916 127.875C591.916 130.075 592.666 131.175 594.166 131.175C595.566 131.175 596.766 130.6 597.766 129.45C598.766 128.25 599.566 126.625 600.166 124.575L605.266 100.5H616.066L610.666 126C610.466 126.75 610.366 127.55 610.366 128.4C610.366 129.4 610.591 130.125 611.041 130.575C611.541 130.975 612.341 131.175 613.441 131.175C614.241 131.175 614.816 131.125 615.166 131.025C615.566 130.875 615.816 130.775 615.916 130.725C615.716 133.275 614.841 135.2 613.291 136.5C611.741 137.8 609.841 138.45 607.591 138.45C605.491 138.45 603.791 137.825 602.491 136.575C601.241 135.325 600.491 133.575 600.241 131.325C598.541 134.075 596.741 135.95 594.841 136.95C592.991 137.95 591.066 138.45 589.066 138.45ZM658.049 138.45C654.349 138.45 651.474 137.5 649.424 135.6C647.374 133.65 646.349 130.625 646.349 126.525C646.349 123.075 647.024 119.275 648.374 115.125C649.774 110.975 651.974 107.4 654.974 104.4C658.024 101.35 661.874 99.825 666.524 99.825C669.524 99.825 671.649 100.475 672.899 101.775C674.199 103.075 674.849 104.725 674.849 106.725C674.849 108.475 674.474 109.825 673.724 110.775C672.974 111.725 672.024 112.2 670.874 112.2C670.024 112.2 669.149 111.9 668.249 111.3C668.849 109.65 669.149 108.175 669.149 106.875C669.149 105.925 668.974 105.175 668.624 104.625C668.274 104.075 667.749 103.8 667.049 103.8C665.549 103.8 664.049 105.025 662.549 107.475C661.049 109.925 659.824 112.9 658.874 116.4C657.924 119.9 657.449 123.05 657.449 125.85C657.449 128.3 657.874 129.975 658.724 130.875C659.574 131.725 660.949 132.15 662.849 132.15C665.549 132.15 667.849 131.525 669.749 130.275C671.699 129.025 673.824 127.125 676.124 124.575H678.674C673.124 133.825 666.249 138.45 658.049 138.45ZM729.208 138.45C726.158 138.45 723.908 137.65 722.458 136.05C721.058 134.4 720.358 132.375 720.358 129.975C720.358 128.925 720.483 127.75 720.733 126.45C720.983 125.1 721.233 123.8 721.483 122.55C721.783 121.3 721.983 120.5 722.083 120.15C722.483 118.4 722.858 116.675 723.208 114.975C723.558 113.275 723.733 111.9 723.733 110.85C723.733 108.3 722.833 107.025 721.033 107.025C719.733 107.025 718.583 107.675 717.583 108.975C716.583 110.225 715.783 111.875 715.183 113.925L710.083 138H699.283L704.758 112.125C704.908 111.525 704.983 110.9 704.983 110.25C704.983 108.05 704.233 106.95 702.733 106.95C701.333 106.95 700.108 107.6 699.058 108.9C698.058 110.15 697.258 111.825 696.658 113.925L691.558 138H680.758L688.708 100.5H699.508L698.683 104.4C701.233 101.55 704.283 100.125 707.833 100.125C712.233 100.125 714.808 102.275 715.558 106.575C718.308 102.325 721.783 100.2 725.983 100.2C728.533 100.2 730.558 100.9 732.058 102.3C733.558 103.7 734.308 105.825 734.308 108.675C734.308 110.125 734.133 111.75 733.783 113.55C733.433 115.3 732.933 117.45 732.283 120C731.883 121.55 731.508 123.075 731.158 124.575C730.858 126.025 730.708 127.175 730.708 128.025C730.708 129.025 730.933 129.8 731.383 130.35C731.833 130.9 732.608 131.175 733.708 131.175C735.208 131.175 736.408 130.65 737.308 129.6C738.208 128.5 739.108 126.825 740.008 124.575H743.158C741.308 130.075 739.158 133.775 736.708 135.675C734.308 137.525 731.808 138.45 729.208 138.45ZM753.205 97.725H764.005L762.805 103.35C765.305 101.2 768.23 100.125 771.58 100.125C774.38 100.125 776.605 101.05 778.255 102.9C779.905 104.75 780.73 107.775 780.73 111.975C780.73 115.925 780.155 119.925 779.005 123.975C777.855 127.975 775.905 131.4 773.155 134.25C770.405 137.05 766.78 138.45 762.28 138.45C759.08 138.45 756.955 137.55 755.905 135.75L752.005 154.05L740.68 156.75L753.205 97.725ZM759.955 131.925C762.355 131.925 764.33 130.8 765.88 128.55C767.48 126.3 768.63 123.625 769.33 120.525C770.08 117.375 770.455 114.45 770.455 111.75C770.455 107.6 769.205 105.525 766.705 105.525C765.805 105.525 764.88 105.85 763.93 106.5C763.03 107.15 762.23 108.05 761.53 109.2L757.105 130.2C757.505 131.35 758.455 131.925 759.955 131.925ZM799.088 138.45C796.238 138.45 793.863 137.475 791.963 135.525C790.063 133.575 789.113 130.525 789.113 126.375C789.113 122.675 789.838 118.8 791.288 114.75C792.788 110.65 794.988 107.2 797.888 104.4C800.838 101.55 804.338 100.125 808.388 100.125C810.438 100.125 811.963 100.475 812.963 101.175C813.963 101.875 814.463 102.8 814.463 103.95V104.475L815.288 100.5H826.088L820.688 126C820.488 126.75 820.388 127.55 820.388 128.4C820.388 130.55 821.413 131.625 823.463 131.625C824.863 131.625 826.063 130.975 827.063 129.675C828.113 128.375 828.938 126.675 829.538 124.575H832.688C830.838 129.975 828.538 133.65 825.788 135.6C823.088 137.5 820.363 138.45 817.613 138.45C815.513 138.45 813.813 137.875 812.513 136.725C811.263 135.525 810.513 133.8 810.263 131.55C808.813 133.6 807.188 135.275 805.388 136.575C803.638 137.825 801.538 138.45 799.088 138.45ZM803.963 131.175C805.213 131.175 806.438 130.6 807.638 129.45C808.888 128.25 809.738 126.625 810.188 124.575L813.788 107.625C813.788 106.975 813.538 106.35 813.038 105.75C812.538 105.1 811.763 104.775 810.713 104.775C808.713 104.775 806.913 105.95 805.313 108.3C803.713 110.6 802.463 113.4 801.563 116.7C800.663 119.95 800.213 122.825 800.213 125.325C800.213 127.825 800.563 129.425 801.263 130.125C802.013 130.825 802.913 131.175 803.963 131.175ZM864.29 138.45C861.44 138.45 859.24 137.7 857.69 136.2C856.19 134.65 855.44 132.75 855.44 130.5C855.44 129.05 856.015 125.55 857.165 120H848.84L845.015 138H834.215L842.165 100.5H852.965L849.74 115.5H858.14L861.515 100.5H871.565L867.59 119.1C867.09 121.25 866.665 123.125 866.315 124.725C865.965 126.325 865.79 127.425 865.79 128.025C865.79 130.125 866.79 131.175 868.79 131.175C870.19 131.175 871.315 130.7 872.165 129.75C873.015 128.8 873.99 127.075 875.09 124.575H878.24C875.09 133.825 870.44 138.45 864.29 138.45ZM890.003 138.45C887.603 138.45 885.653 137.7 884.153 136.2C882.703 134.7 881.978 132.45 881.978 129.45C881.978 128.2 882.178 126.575 882.578 124.575L887.678 100.5H898.478L893.078 126C892.928 126.75 892.853 127.45 892.853 128.1C892.853 130.15 893.603 131.175 895.103 131.175C896.503 131.175 897.703 130.6 898.703 129.45C899.703 128.25 900.503 126.625 901.103 124.575L906.203 100.5H917.003L911.603 126C911.403 126.75 911.303 127.55 911.303 128.4C911.303 129.4 911.528 130.125 911.978 130.575C912.478 130.975 913.278 131.175 914.378 131.175C915.778 131.175 916.978 130.575 917.978 129.375C919.028 128.175 919.853 126.575 920.453 124.575H923.603C921.753 129.975 919.453 133.65 916.703 135.6C914.003 137.5 911.278 138.45 908.528 138.45C906.378 138.45 904.653 137.85 903.353 136.65C902.103 135.45 901.353 133.675 901.103 131.325C899.403 134.075 897.603 135.95 895.703 136.95C893.853 137.95 891.953 138.45 890.003 138.45ZM934.244 155.7C934.894 152.1 935.669 149.325 936.569 147.375C937.519 145.425 938.719 144.05 940.169 143.25C941.619 142.45 943.519 142.05 945.869 142.05H951.719C953.519 142.05 954.844 141.95 955.694 141.75C956.594 141.55 957.394 140.975 958.094 140.025C958.794 139.075 959.369 137.525 959.819 135.375C958.519 136.675 957.419 137.525 956.519 137.925C955.619 138.275 954.494 138.45 953.144 138.45C951.344 138.45 949.844 137.85 948.644 136.65C947.444 135.4 946.719 133.625 946.469 131.325C944.769 134.075 942.969 135.95 941.069 136.95C939.219 137.95 937.319 138.45 935.369 138.45C932.969 138.45 931.019 137.7 929.519 136.2C928.069 134.7 927.344 132.45 927.344 129.45C927.344 128.2 927.544 126.575 927.944 124.575L933.044 100.5H943.844L938.444 126C938.294 126.75 938.219 127.45 938.219 128.1C938.219 130.15 938.969 131.175 940.469 131.175C941.869 131.175 943.069 130.6 944.069 129.45C945.069 128.25 945.869 126.625 946.469 124.575L951.569 100.5H962.369L956.969 126C956.769 126.75 956.669 127.55 956.669 128.4C956.669 129.4 956.894 130.125 957.344 130.575C957.844 130.975 958.644 131.175 959.744 131.175H963.569C963.019 137.175 961.944 141.7 960.344 144.75C958.744 147.85 957.019 149.85 955.169 150.75C953.319 151.65 951.344 152.1 949.244 152.1H944.069C941.969 152.1 940.394 152.175 939.344 152.325C938.294 152.475 937.494 152.8 936.944 153.3C936.394 153.8 935.994 154.6 935.744 155.7H934.244ZM986.156 138.45C982.506 138.45 979.656 137.5 977.606 135.6C975.556 133.65 974.531 130.625 974.531 126.525C974.531 123.075 975.206 119.275 976.556 115.125C977.906 110.975 980.106 107.4 983.156 104.4C986.206 101.35 990.081 99.825 994.781 99.825C1000.28 99.825 1003.03 102.225 1003.03 107.025C1003.03 109.825 1002.23 112.4 1000.63 114.75C999.031 117.1 996.906 119 994.256 120.45C991.606 121.85 988.781 122.65 985.781 122.85C985.681 123.95 985.631 124.7 985.631 125.1C985.631 129.25 987.181 131.325 990.281 131.325C991.681 131.325 993.181 130.95 994.781 130.2C996.381 129.45 997.831 128.5 999.131 127.35C997.781 134.75 993.456 138.45 986.156 138.45ZM986.306 119.25C988.206 119.2 989.981 118.575 991.631 117.375C993.331 116.175 994.681 114.65 995.681 112.8C996.731 110.9 997.256 108.925 997.256 106.875C997.256 104.825 996.631 103.8 995.381 103.8C993.631 103.8 991.881 105.4 990.131 108.6C988.431 111.75 987.156 115.3 986.306 119.25ZM1041.73 138.45C1039.33 138.45 1037.38 137.7 1035.88 136.2C1034.43 134.7 1033.71 132.45 1033.71 129.45C1033.71 128.2 1033.91 126.575 1034.31 124.575L1039.41 100.5H1050.21L1044.81 126C1044.66 126.75 1044.58 127.45 1044.58 128.1C1044.58 130.15 1045.33 131.175 1046.83 131.175C1048.23 131.175 1049.43 130.6 1050.43 129.45C1051.43 128.25 1052.23 126.625 1052.83 124.575L1057.93 100.5H1068.73L1063.33 126C1063.13 126.75 1063.03 127.55 1063.03 128.4C1063.03 129.4 1063.26 130.125 1063.71 130.575C1064.21 130.975 1065.01 131.175 1066.11 131.175C1067.51 131.175 1068.71 130.575 1069.71 129.375C1070.76 128.175 1071.58 126.575 1072.18 124.575H1075.33C1073.48 129.975 1071.18 133.65 1068.43 135.6C1065.73 137.5 1063.01 138.45 1060.26 138.45C1058.11 138.45 1056.38 137.85 1055.08 136.65C1053.83 135.45 1053.08 133.675 1052.83 131.325C1051.13 134.075 1049.33 135.95 1047.43 136.95C1045.58 137.95 1043.68 138.45 1041.73 138.45ZM1089.05 156.75C1086.65 156.75 1084.65 156.125 1083.05 154.875C1081.45 153.625 1080.65 151.825 1080.65 149.475C1080.65 144.625 1084.57 140.95 1092.42 138.45C1092.27 133.15 1090.47 130.5 1087.02 130.5H1084.7L1085.67 126H1087.85C1089.6 126 1091.17 125.425 1092.57 124.275C1093.97 123.125 1095.07 121.575 1095.87 119.625C1096.67 117.625 1097.07 115.45 1097.07 113.1C1097.07 111.35 1096.67 109.85 1095.87 108.6C1095.07 107.3 1093.8 106.65 1092.05 106.65C1090.2 106.65 1088.6 107.45 1087.25 109.05C1085.9 110.6 1084.82 112.4 1084.02 114.45H1080.42C1082.02 110.05 1084.02 106.525 1086.42 103.875C1088.87 101.175 1092.25 99.825 1096.55 99.825C1100.2 99.825 1103.07 100.875 1105.17 102.975C1107.32 105.075 1108.4 108 1108.4 111.75C1108.4 114.75 1107.67 117.475 1106.22 119.925C1104.82 122.325 1103.2 124.275 1101.35 125.775C1099.5 127.225 1097.97 128.075 1096.77 128.325C1098.07 128.775 1099.3 129.675 1100.45 131.025C1101.65 132.375 1102.47 133.975 1102.92 135.825C1105.77 134.975 1108 133.75 1109.6 132.15C1111.25 130.55 1112.65 128.025 1113.8 124.575H1116.95C1115.6 129.125 1113.72 132.45 1111.32 134.55C1108.92 136.65 1106.22 138.075 1103.22 138.825C1103.12 144.425 1101.77 148.8 1099.17 151.95C1096.62 155.15 1093.25 156.75 1089.05 156.75ZM1087.32 150.9C1088.37 150.9 1089.37 150.025 1090.32 148.275C1091.27 146.525 1091.9 144.45 1092.2 142.05C1087.25 143.75 1084.77 145.875 1084.77 148.425C1084.77 149.175 1084.97 149.775 1085.37 150.225C1085.82 150.675 1086.47 150.9 1087.32 150.9ZM1133 156.75C1130.6 156.75 1128.6 156.125 1127 154.875C1125.4 153.625 1124.6 151.825 1124.6 149.475C1124.6 146.625 1125.75 144.325 1128.05 142.575C1130.35 140.875 1133.28 139.45 1136.83 138.3L1137.73 134.25C1136.28 135.85 1134.8 136.95 1133.3 137.55C1131.8 138.15 1130.28 138.45 1128.73 138.45C1126.33 138.45 1124.38 137.7 1122.88 136.2C1121.43 134.7 1120.7 132.45 1120.7 129.45C1120.7 128.2 1120.9 126.575 1121.3 124.575L1126.4 100.5H1137.2L1131.8 126C1131.65 126.6 1131.58 127.225 1131.58 127.875C1131.58 130.075 1132.33 131.175 1133.83 131.175C1135.13 131.175 1136.28 130.625 1137.28 129.525C1138.28 128.375 1139.08 126.875 1139.68 125.025L1144.93 100.5H1155.73L1148.3 135.3C1150.95 134.35 1153.08 132.9 1154.68 130.95C1156.28 128.95 1157.45 126.1 1158.2 122.4L1162.7 100.5H1173.5L1170.58 114.45C1170.43 115.2 1170.35 115.9 1170.35 116.55C1170.35 118.6 1171.1 119.625 1172.6 119.625C1174.05 119.625 1175.3 119.05 1176.35 117.9C1177.4 116.7 1178.13 115.125 1178.53 113.175L1181.23 100.5H1192.03L1186.63 126C1186.43 126.75 1186.33 127.55 1186.33 128.4C1186.33 129.4 1186.55 130.125 1187 130.575C1187.5 130.975 1188.3 131.175 1189.4 131.175C1190.8 131.175 1192 130.575 1193 129.375C1194.05 128.175 1194.88 126.575 1195.48 124.575H1198.63C1196.78 129.975 1194.48 133.65 1191.73 135.6C1189.03 137.5 1186.3 138.45 1183.55 138.45C1181.15 138.45 1179.2 137.7 1177.7 136.2C1176.25 134.7 1175.53 132.45 1175.53 129.45C1175.53 128.2 1175.73 126.575 1176.13 124.575L1176.5 122.7C1175.05 124.3 1173.58 125.4 1172.08 126C1170.58 126.6 1169.05 126.9 1167.5 126.9C1164.6 126.9 1162.43 125.875 1160.98 123.825C1159.93 128.375 1158.18 131.775 1155.73 134.025C1153.33 136.225 1150.63 137.75 1147.63 138.6L1146.5 144C1145.5 148.85 1143.78 152.175 1141.33 153.975C1138.88 155.825 1136.1 156.75 1133 156.75ZM1131.28 150.9C1132.13 150.9 1132.95 150.325 1133.75 149.175C1134.55 148.025 1135.18 146.375 1135.63 144.225L1136.08 142.05C1131.18 143.85 1128.73 145.975 1128.73 148.425C1128.73 149.075 1128.95 149.65 1129.4 150.15C1129.85 150.65 1130.48 150.9 1131.28 150.9ZM1213.72 138.45C1210.02 138.45 1207.15 137.5 1205.1 135.6C1203.05 133.65 1202.02 130.625 1202.02 126.525C1202.02 123.075 1202.7 119.275 1204.05 115.125C1205.4 110.975 1207.6 107.4 1210.65 104.4C1213.7 101.35 1217.57 99.825 1222.27 99.825C1227.77 99.825 1230.52 102.225 1230.52 107.025C1230.52 109.825 1229.72 112.4 1228.12 114.75C1226.52 117.1 1224.4 119 1221.75 120.45C1219.1 121.85 1216.27 122.65 1213.27 122.85C1213.17 124.35 1213.12 125.35 1213.12 125.85C1213.12 128.3 1213.55 129.975 1214.4 130.875C1215.25 131.725 1216.62 132.15 1218.52 132.15C1221.22 132.15 1223.52 131.525 1225.42 130.275C1227.37 129.025 1229.5 127.125 1231.8 124.575H1234.35C1228.8 133.825 1221.92 138.45 1213.72 138.45ZM1213.87 119.25C1215.72 119.15 1217.47 118.5 1219.12 117.3C1220.82 116.1 1222.17 114.575 1223.17 112.725C1224.22 110.875 1224.75 108.925 1224.75 106.875C1224.75 104.825 1224.12 103.8 1222.87 103.8C1221.07 103.8 1219.3 105.375 1217.55 108.525C1215.85 111.675 1214.62 115.25 1213.87 119.25ZM1266.51 138.45C1263.66 138.45 1261.46 137.7 1259.91 136.2C1258.41 134.65 1257.66 132.75 1257.66 130.5C1257.66 129.05 1258.23 125.55 1259.38 120H1251.06L1247.23 138H1236.43L1244.38 100.5H1255.18L1251.96 115.5H1260.36L1263.73 100.5H1273.78L1269.81 119.1C1269.31 121.25 1268.88 123.125 1268.53 124.725C1268.18 126.325 1268.01 127.425 1268.01 128.025C1268.01 130.125 1269.01 131.175 1271.01 131.175C1272.41 131.175 1273.53 130.7 1274.38 129.75C1275.23 128.8 1276.21 127.075 1277.31 124.575H1280.46C1277.31 133.825 1272.66 138.45 1266.51 138.45ZM1295.07 138.45C1291.67 138.45 1289.02 137.6 1287.12 135.9C1285.27 134.2 1284.34 131.85 1284.34 128.85C1284.34 127.85 1284.52 126.425 1284.87 124.575L1289.82 100.5H1300.17L1294.62 126.9C1294.47 127.3 1294.39 128 1294.39 129C1294.39 131.05 1295.52 132.075 1297.77 132.075C1299.12 132.075 1300.42 131.525 1301.67 130.425C1302.92 129.275 1303.92 127.75 1304.67 125.85C1305.42 123.95 1305.79 121.875 1305.79 119.625C1305.79 118.375 1305.42 117.425 1304.67 116.775C1304.02 117.225 1303.29 117.45 1302.49 117.45C1301.64 117.45 1300.87 117.175 1300.17 116.625C1299.52 116.075 1299.19 115.275 1299.19 114.225C1299.19 113.125 1299.62 112.275 1300.47 111.675C1301.32 111.075 1302.29 110.775 1303.39 110.775C1304.54 110.775 1305.57 110.925 1306.47 111.225C1309.67 109.775 1313.49 107.7 1317.94 105C1321.54 102.85 1324.14 101.35 1325.74 100.5H1330.39L1324.92 126C1324.72 126.75 1324.62 127.55 1324.62 128.4C1324.62 129.4 1324.84 130.125 1325.29 130.575C1325.79 130.975 1326.59 131.175 1327.69 131.175C1328.59 131.175 1329.39 131.025 1330.09 130.725C1329.89 133.225 1328.99 135.15 1327.39 136.5C1325.84 137.8 1323.99 138.45 1321.84 138.45C1319.64 138.45 1317.87 137.7 1316.52 136.2C1315.22 134.7 1314.57 132.45 1314.57 129.45C1314.57 128.2 1314.77 126.575 1315.17 124.575L1318.47 109.125C1316.12 110.625 1313.32 112.25 1310.07 114C1311.27 115.85 1311.87 118.35 1311.87 121.5C1311.87 123.85 1311.24 126.35 1309.99 129C1308.74 131.6 1306.84 133.825 1304.29 135.675C1301.79 137.525 1298.72 138.45 1295.07 138.45Z" fill="black"/>
</svg>
