<?xml version="1.0" standalone="no"?>
<!DOCTYPE svg PUBLIC "-//W3C//DTD SVG 20010904//EN"
 "http://www.w3.org/TR/2001/REC-SVG-20010904/DTD/svg10.dtd">
<svg version="1.0" xmlns="http://www.w3.org/2000/svg"
 width="1150.000000pt" height="1280.000000pt" viewBox="0 0 1150.000000 1280.000000"
 preserveAspectRatio="xMidYMid meet">
<metadata>
Created by potrace 1.15, written by Peter Selinger 2001-2017
</metadata>
<g transform="translate(0.000000,1280.000000) scale(0.100000,-0.100000)"
fill="#000000" stroke="none">
<path d="M8675 12784 c-220 -41 -473 -170 -725 -370 -116 -92 -347 -326 -453
-459 -325 -408 -542 -865 -608 -1280 -6 -38 -11 -126 -10 -195 0 -231 54 -396
169 -518 28 -30 30 -36 19 -53 -8 -10 -16 -17 -19 -14 -13 13 -592 -129 -968
-236 -707 -203 -1398 -467 -2422 -925 -145 -65 -278 -128 -297 -141 -19 -13
-39 -23 -45 -23 -7 0 -88 -31 -181 -68 -164 -66 -170 -69 -179 -102 -6 -20
-34 -59 -64 -90 -62 -63 -72 -83 -72 -150 0 -160 68 -243 158 -196 31 16 78
65 112 116 13 19 58 71 100 115 42 44 102 112 133 151 108 135 175 185 364
270 1202 541 2003 832 2928 1062 256 64 355 86 361 79 3 -3 -11 -32 -32 -64
-20 -32 -65 -119 -99 -193 -260 -573 -799 -1197 -1975 -2290 -520 -483 -767
-728 -835 -829 -46 -67 -50 -79 -52 -135 l-1 -61 -199 -92 c-963 -447 -1620
-528 -2333 -286 -348 118 -700 313 -1146 634 -83 60 -160 109 -170 109 -24 0
-77 -100 -93 -175 -27 -129 -51 -493 -33 -504 6 -3 16 -44 22 -89 27 -201 84
-300 230 -404 107 -76 150 -102 157 -94 3 2 -9 47 -26 98 -57 172 -66 250 -66
580 0 163 3 299 6 302 3 4 62 -31 130 -77 646 -437 1183 -629 1759 -629 511
-1 1017 139 1699 468 96 46 187 84 203 84 86 0 163 29 398 151 19 10 81 27
136 39 592 119 1169 104 1767 -46 390 -98 722 -222 1484 -555 666 -291 943
-403 1291 -520 l174 -58 29 21 c16 12 29 25 29 28 0 3 38 49 85 101 47 52 116
137 153 189 37 52 107 142 155 200 91 108 152 217 196 348 22 64 20 112 -4
112 -16 0 -83 -49 -115 -85 -58 -64 -188 -135 -247 -135 -13 0 -34 -11 -47
-25 -13 -14 -28 -25 -34 -25 -5 0 -13 -16 -16 -35 -4 -19 -38 -97 -75 -173
-77 -155 -141 -318 -141 -357 0 -32 2 -33 -250 57 -314 113 -575 221 -1220
503 -699 306 -1037 430 -1460 534 -343 85 -601 116 -970 115 -270 0 -349 -5
-605 -40 l-50 -7 128 102 c213 170 359 303 643 586 691 690 1172 1353 1389
1915 40 104 89 284 100 370 5 37 22 79 51 130 24 41 55 104 70 139 l28 64 70
-7 c302 -29 783 -23 1082 14 576 71 995 198 1939 588 220 91 476 196 569 234
92 38 209 93 260 123 95 56 134 73 228 99 68 19 118 71 139 144 26 88 14 320
-23 440 -13 42 -49 53 -86 25 -24 -17 -224 -278 -299 -388 -14 -22 -57 -99
-94 -172 -36 -73 -69 -130 -72 -127 -3 3 -225 -86 -494 -197 -660 -273 -876
-356 -1163 -448 -287 -92 -619 -166 -898 -201 -158 -19 -619 -46 -629 -37 -2
3 19 12 49 21 72 21 265 120 368 188 310 206 639 554 872 924 87 138 214 395
268 543 111 307 147 624 95 841 -37 151 -143 303 -254 363 -129 71 -285 92
-446 61z m225 -145 c88 -14 140 -39 201 -96 59 -55 102 -135 126 -230 23 -98
21 -299 -6 -433 -21 -106 -69 -278 -81 -293 -4 -4 -10 12 -13 37 -14 99 -70
165 -164 192 -68 20 -118 13 -202 -26 -132 -63 -240 -220 -249 -362 -5 -88 8
-141 48 -196 79 -110 242 -117 383 -16 l48 34 -22 -42 c-31 -61 -143 -239
-207 -328 -123 -172 -316 -386 -474 -523 l-67 -59 -162 96 c-89 53 -163 95
-163 94 -1 -2 -10 -15 -19 -30 -9 -15 -17 -29 -17 -32 0 -2 65 -43 145 -91
145 -87 145 -87 123 -105 -93 -72 -292 -180 -413 -223 -160 -56 -339 -62 -447
-14 -296 132 -317 635 -50 1223 248 549 729 1082 1182 1309 145 73 280 113
420 124 8 0 44 -4 80 -10z m69 -974 c39 -38 41 -126 7 -202 -68 -149 -229
-234 -303 -160 -26 25 -28 34 -28 100 1 85 23 137 89 205 86 90 179 113 235
57z m-2440 -3032 c-351 -583 -955 -1274 -1592 -1820 -257 -221 -585 -449 -687
-478 -39 -11 160 186 660 653 809 756 1262 1218 1560 1590 40 50 75 92 78 92
2 0 -7 -17 -19 -37z"/>
<path d="M2665 1320 c-473 -11 -1460 -67 -1965 -110 -449 -39 -678 -78 -667
-114 10 -32 200 -65 551 -96 196 -17 629 -49 696 -51 18 0 10 -6 -27 -18 -28
-10 -64 -26 -80 -37 -28 -19 -25 -19 447 -25 261 -3 745 -7 1075 -8 383 -1
790 -8 1125 -21 289 -11 552 -20 584 -20 33 0 57 -3 54 -6 -4 -3 -82 -21 -175
-40 -255 -52 -645 -140 -868 -195 -734 -183 -1058 -319 -998 -418 71 -120 861
-178 2038 -151 515 11 838 25 935 40 36 6 227 19 425 30 198 11 439 24 535 30
96 5 276 14 400 21 602 29 583 28 315 25 -132 -2 -216 -1 -187 1 l52 4 0 84 0
85 -117 2 c-65 2 49 5 252 8 l370 5 -375 3 c-206 1 -532 9 -725 17 -430 18
-1031 32 -1684 41 -496 6 -581 10 -583 29 -1 23 41 32 1242 271 655 130 645
129 1310 153 357 14 500 22 496 30 -3 4 -53 3 -113 -1 -59 -5 -130 -7 -158 -5
-43 3 -41 4 18 5 l67 2 0 37 0 36 108 -7 c59 -3 121 -10 137 -14 29 -8 28 -9
-18 -16 -27 -4 -47 -10 -44 -13 3 -2 32 1 64 7 52 11 55 14 33 22 -61 23 -309
41 -905 68 -236 11 -457 24 -490 30 -439 72 -1806 100 -2880 59 -263 -10 -380
-9 -770 5 -253 9 -506 16 -562 16 -57 0 -103 4 -103 9 0 8 786 19 1905 26 806
5 1361 31 1533 72 33 8 27 21 -15 32 -74 19 -402 45 -698 55 -262 10 -1258 13
-1560 6z m4093 -347 c-10 -2 -28 -2 -40 0 -13 2 -5 4 17 4 22 1 32 -1 23 -4z
m120 -10 c-16 -2 -40 -2 -55 0 -16 2 -3 4 27 4 30 0 43 -2 28 -4z m-110 -820
c-10 -2 -28 -2 -40 0 -13 2 -5 4 17 4 22 1 32 -1 23 -4z"/>
<path d="M7818 363 c12 -2 32 -2 45 0 12 2 2 4 -23 4 -25 0 -35 -2 -22 -4z"/>
<path d="M7548 353 c28 -2 76 -2 105 0 28 2 5 3 -53 3 -58 0 -81 -1 -52 -3z"/>
<path d="M7733 173 c26 -2 67 -2 90 0 23 2 2 3 -48 3 -49 0 -68 -1 -42 -3z"/>
<path d="M7383 163 c31 -2 83 -2 115 0 31 2 5 3 -58 3 -63 0 -89 -1 -57 -3z"/>
</g>
</svg>
