<?xml version="1.0" standalone="no"?>
<!DOCTYPE svg PUBLIC "-//W3C//DTD SVG 20010904//EN"
 "http://www.w3.org/TR/2001/REC-SVG-20010904/DTD/svg10.dtd">
<svg version="1.0" xmlns="http://www.w3.org/2000/svg"
 width="1280.000000pt" height="1280.000000pt" viewBox="0 0 1280.000000 1280.000000"
 preserveAspectRatio="xMidYMid meet">
<metadata>
Created by potrace 1.15, written by Peter Selinger 2001-2017
</metadata>
<g transform="translate(0.000000,1280.000000) scale(0.100000,-0.100000)"
fill="#000000" stroke="none">
<path d="M5020 9885 l-1515 -1515 -1532 0 -1533 0 0 -495 0 -495 -190 0 -190
0 0 -805 0 -805 200 0 200 0 0 -570 0 -570 1497 0 1498 0 1542 -1542 1543
-1543 0 2120 0 2121 30 17 c48 29 163 147 210 216 154 230 210 534 146 804
-54 226 -155 393 -317 524 l-69 55 -2 1999 -3 1999 -1515 -1515z"/>
<path d="M7901 9276 l-275 -275 76 -78 c266 -275 514 -641 647 -953 13 -30 34
-77 46 -105 12 -27 29 -68 36 -90 7 -22 16 -44 20 -50 6 -9 41 -121 83 -265
82 -281 122 -627 113 -967 -9 -346 -47 -585 -144 -918 -8 -27 -18 -59 -23 -70
-4 -11 -27 -72 -50 -135 -112 -302 -304 -641 -514 -905 -67 -85 -243 -279
-342 -378 -5 -4 115 -131 266 -282 l275 -275 103 103 c57 56 138 143 180 192
42 50 79 92 83 95 23 18 249 331 316 438 131 206 295 533 355 707 11 33 24 65
28 70 11 16 85 249 118 375 42 158 86 378 99 490 3 30 11 98 18 150 19 135 13
773 -8 935 -60 468 -186 889 -392 1310 -167 339 -315 568 -569 875 -76 91
-254 280 -265 280 -3 0 -130 -123 -280 -274z"/>
<path d="M6927 8311 c-130 -130 -237 -240 -237 -244 0 -5 38 -50 84 -100 556
-604 697 -1473 364 -2232 -98 -222 -223 -405 -409 -599 l-107 -112 243 -244
244 -244 22 19 c54 48 213 217 276 295 163 202 273 386 394 655 68 153 127
354 179 615 18 92 35 308 35 455 0 143 -18 385 -35 459 -5 22 -17 77 -26 121
-31 151 -91 341 -162 510 -80 190 -246 461 -394 645 -64 78 -219 241 -228 239
-3 -1 -112 -108 -243 -238z"/>
</g>
</svg>
